<?xml version="1.0" standalone="no"?>
<!DOCTYPE svg PUBLIC "-//W3C//DTD SVG 20010904//EN"
 "http://www.w3.org/TR/2001/REC-SVG-20010904/DTD/svg10.dtd">
<svg version="1.0" xmlns="http://www.w3.org/2000/svg"
 width="1024.000000pt" height="1024.000000pt" viewBox="0 0 1024.000000 1024.000000"
 preserveAspectRatio="xMidYMid meet">
<metadata>
Created by potrace 1.14, written by Peter Selinger 2001-2017
</metadata>
<g transform="translate(0.000000,1024.000000) scale(0.100000,-0.100000)"
fill="#000000" stroke="none">
<path d="M5062 8518 c-5 -7 -19 -31 -29 -53 -11 -22 -130 -258 -265 -525 -293
-581 -404 -833 -671 -1515 -171 -435 -369 -1035 -507 -1535 -79 -287 -122
-420 -136 -420 -15 0 -99 66 -140 111 -110 120 -135 190 -116 320 21 147 86
335 183 534 134 274 314 836 394 1230 54 266 166 1047 153 1061 -4 4 -36 -199
-74 -478 -30 -216 -98 -525 -125 -567 -11 -17 -6 144 10 349 4 58 5 139 1 180
l-7 75 -2 -93 c-1 -112 -41 -388 -83 -572 -86 -384 -197 -691 -478 -1318 -45
-101 -105 -220 -132 -265 -120 -192 -135 -353 -51 -521 57 -112 175 -216 341
-300 39 -20 72 -37 72 -39 0 -4 -56 -205 -98 -357 -22 -80 -50 -181 -62 -225
-34 -130 -119 -390 -154 -473 -39 -94 -153 -305 -208 -387 -74 -109 -151 -197
-248 -280 -156 -135 -274 -200 -435 -241 -57 -15 -65 -19 -45 -24 31 -9 308
-2 460 10 201 17 464 72 571 119 90 40 106 67 235 396 41 105 90 226 108 270
53 129 68 169 221 603 80 227 145 419 145 426 0 31 24 34 140 20 63 -7 204
-13 313 -14 124 0 197 -4 197 -10 0 -5 -4 -10 -9 -10 -12 0 -306 -144 -353
-172 -20 -13 -79 -49 -132 -81 -52 -32 -99 -63 -103 -70 -3 -6 7 -2 23 9 16
11 67 39 114 61 47 23 175 85 285 138 230 111 315 141 510 184 203 44 269 62
476 130 102 34 189 61 192 61 26 0 -15 -46 -165 -187 -244 -228 -452 -398
-608 -497 -25 -16 -64 -42 -88 -57 -23 -16 -45 -29 -47 -29 -2 0 -46 -25 -97
-57 -225 -137 -468 -226 -468 -172 0 50 91 163 220 274 104 89 394 284 544
366 63 35 114 64 112 66 -10 10 -514 -237 -584 -286 -15 -10 -59 -37 -98 -59
-146 -84 -333 -245 -421 -362 -118 -158 -230 -431 -307 -749 -24 -98 -46 -311
-33 -311 3 0 22 24 41 52 82 125 268 324 454 487 29 25 163 145 176 156 15 14
241 203 287 240 21 17 75 62 121 101 98 83 382 297 595 448 83 59 222 167 308
239 86 73 164 137 172 142 11 8 26 -2 64 -44 27 -30 49 -58 49 -63 0 -16 -186
-184 -312 -283 -14 -11 -57 -47 -94 -81 -107 -95 -209 -182 -309 -264 -51 -41
-114 -93 -141 -115 -113 -92 -391 -360 -457 -440 l-42 -50 50 44 c28 25 52 47
55 51 17 18 260 228 400 345 280 233 551 475 747 669 l112 110 22 -20 c12 -10
65 -73 118 -139 90 -114 268 -329 333 -405 17 -19 83 -98 146 -175 325 -393
733 -821 827 -868 128 -64 393 -123 614 -137 242 -15 421 -20 421 -12 0 4 -34
18 -74 30 -202 64 -412 229 -638 501 -142 171 -405 529 -669 909 -35 51 -98
140 -139 197 -41 57 -124 176 -185 265 -110 161 -136 198 -296 425 -47 66 -99
144 -117 173 l-33 54 67 66 c111 110 336 390 416 517 76 122 145 252 193 364
107 254 140 403 132 601 -6 150 -27 218 -98 324 -78 117 -195 205 -484 366
-335 186 -388 233 -568 507 -68 104 -231 350 -363 549 -131 198 -257 391 -279
427 -22 36 -43 66 -46 67 -4 0 -11 -6 -17 -12z m161 -882 c121 -43 279 -158
422 -307 275 -288 445 -539 564 -837 56 -137 76 -222 91 -376 28 -294 -21
-527 -173 -833 -65 -130 -162 -288 -178 -288 -7 0 -36 30 -64 66 -129 171
-647 893 -885 1234 -196 282 -281 397 -288 390 -4 -3 -21 -47 -38 -98 -93
-266 -183 -519 -234 -662 -32 -88 -70 -195 -85 -238 -15 -43 -29 -77 -30 -75
-2 2 5 68 16 148 27 211 39 422 39 704 l0 249 79 136 c252 437 445 702 570
782 56 36 102 37 194 5z m-655 -2114 c59 -76 127 -164 152 -197 25 -33 99
-128 165 -211 66 -84 144 -183 172 -220 29 -38 98 -127 153 -199 100 -130 180
-242 180 -254 0 -7 -246 -154 -315 -189 -61 -30 -111 -41 -220 -46 -230 -12
-762 31 -851 69 l-32 13 54 169 c30 92 59 186 65 208 6 22 32 110 59 195 27
85 65 214 86 285 20 72 51 166 69 210 18 45 51 140 74 212 50 155 29 160 189
-45z"/>
</g>
</svg>
